<?xml version="1.0" standalone="no"?>
<!DOCTYPE svg PUBLIC "-//W3C//DTD SVG 20010904//EN"
 "http://www.w3.org/TR/2001/REC-SVG-20010904/DTD/svg10.dtd">
<svg version="1.0" xmlns="http://www.w3.org/2000/svg"
 width="512.000000pt" height="512.000000pt" viewBox="0 0 512.000000 512.000000"
 preserveAspectRatio="xMidYMid meet">

<g transform="translate(0.000000,512.000000) scale(0.100000,-0.100000)"
fill="#000000" stroke="none">
<path d="M1220 4944 c-234 -50 -436 -254 -485 -489 -22 -105 -22 -3525 0
-3630 38 -182 169 -351 336 -433 139 -69 165 -72 657 -72 l432 0 0 160 0 159
-442 3 -443 3 -63 34 c-69 37 -109 79 -144 151 l-23 45 0 1765 0 1765 25 50
c31 64 91 124 155 155 l50 25 763 3 762 3 0 -481 0 -480 560 0 560 0 0 -640 0
-640 160 0 160 0 0 753 0 752 -528 528 -527 527 -950 -1 c-773 0 -962 -3
-1015 -15z m2190 -659 l285 -285 -288 0 -287 0 0 285 c0 157 1 285 3 285 1 0
130 -128 287 -285z"/>
<path d="M3100 2385 c-293 -47 -576 -227 -747 -476 -46 -67 -110 -200 -138
-286 -212 -650 218 -1346 895 -1448 612 -93 1183 326 1275 935 73 479 -169
951 -596 1166 -220 110 -450 146 -689 109z m370 -328 c209 -57 368 -171 480
-344 50 -76 79 -143 108 -248 23 -82 22 -287 -1 -373 -20 -77 -71 -199 -95
-229 l-17 -23 -554 554 -554 554 44 25 c59 35 170 76 249 93 80 17 262 12 340
-9z m227 -1459 c-30 -24 -152 -75 -229 -95 -86 -23 -291 -24 -373 -1 -105 29
-172 58 -248 108 -315 205 -445 591 -316 944 16 43 40 99 55 123 l26 46 554
-554 554 -554 -23 -17z"/>
</g>
</svg>
